# Blender 5.1.1
# www.blender.org
mtllib trashcan.mtl
o Cube
v 0.887144 -1.000000 0.887144
v 0.739116 1.000000 0.739116
v 1.091946 0.716761 1.091946
v 0.600608 0.717574 0.600608
v 1.091946 0.449463 1.091946
v 0.856726 0.950579 0.856726
v 0.974336 0.865827 0.974336
v 0.000000 -1.000000 0.887144
v 0.000000 0.716761 1.091946
v 0.000000 1.000000 0.739116
v 0.000000 0.717574 0.600608
v 0.000000 0.449463 1.091946
v 0.000000 0.950579 0.856726
v 0.000000 0.865827 0.974336
v 0.887144 -1.000000 0.000000
v 1.091946 0.716761 0.000000
v 0.739116 1.000000 0.000000
v 0.600608 0.717574 0.000000
v 1.091946 0.449463 0.000000
v 0.856726 0.950579 0.000000
v 0.974336 0.865827 0.000000
v 0.000000 0.717574 0.000000
v 0.000000 -1.000000 0.000000
v -0.887144 -1.000000 0.887144
v -0.739116 1.000000 0.739116
v -1.091946 0.716761 1.091946
v -0.600608 0.717574 0.600608
v -1.091946 0.449463 1.091946
v -0.856726 0.950579 0.856726
v -0.974336 0.865827 0.974336
v -0.887144 -1.000000 0.000000
v -1.091946 0.716761 0.000000
v -0.739116 1.000000 0.000000
v -0.600608 0.717574 0.000000
v -1.091946 0.449463 0.000000
v -0.856726 0.950579 0.000000
v -0.974336 0.865827 0.000000
v 0.887144 -1.000000 -0.887144
v 0.739116 1.000000 -0.739116
v 1.091946 0.716761 -1.091946
v 0.600608 0.717574 -0.600608
v 1.091946 0.449463 -1.091946
v 0.856726 0.950579 -0.856726
v 0.974336 0.865827 -0.974336
v 0.000000 -1.000000 -0.887144
v 0.000000 0.716761 -1.091946
v 0.000000 1.000000 -0.739116
v 0.000000 0.717574 -0.600608
v 0.000000 0.449463 -1.091946
v 0.000000 0.950579 -0.856726
v 0.000000 0.865827 -0.974336
v -0.887144 -1.000000 -0.887144
v -0.739116 1.000000 -0.739116
v -1.091946 0.716761 -1.091946
v -0.600608 0.717574 -0.600608
v -1.091946 0.449463 -1.091946
v -0.856726 0.950579 -0.856726
v -0.974336 0.865827 -0.974336
vn 1.0000 -0.0000 -0.0000
vn -0.0000 -1.0000 -0.0000
vn 0.7851 0.6194 -0.0000
vn -0.0000 0.4403 -0.8978
vn 0.9902 -0.1399 -0.0000
vn 0.3874 0.9219 -0.0000
vn 0.5846 0.8113 -0.0000
vn -0.0000 0.8113 0.5846
vn -0.0000 0.9219 0.3874
vn -0.0000 -0.1399 0.9902
vn -0.0000 1.0000 -0.0000
vn -0.0000 0.6194 0.7851
vn -0.0000 -0.0000 1.0000
vn -0.8978 0.4403 -0.0000
vn -1.0000 -0.0000 -0.0000
vn -0.7851 0.6194 -0.0000
vn -0.9902 -0.1399 -0.0000
vn -0.3874 0.9219 -0.0000
vn -0.5846 0.8113 -0.0000
vn 0.8978 0.4403 -0.0000
vn -0.0000 0.4403 0.8978
vn -0.0000 0.8113 -0.5846
vn -0.0000 0.9219 -0.3874
vn -0.0000 -0.1399 -0.9902
vn -0.0000 0.6194 -0.7851
vn -0.0000 -0.0000 -1.0000
vt 0.578950 0.625000
vt 0.625000 0.625000
vt 0.625000 0.750000
vt 0.578950 0.750000
vt 0.250000 0.625000
vt 0.375000 0.625000
vt 0.375000 0.750000
vt 0.250000 0.750000
vt 0.635870 0.625000
vt 0.635870 0.739130
vt 0.750000 0.717390
vt 0.657611 0.717390
vt 0.657611 0.625000
vt 0.646740 0.728260
vt 0.646740 0.625000
vt 0.750000 0.728260
vt 0.750000 0.739130
vt 0.578950 0.875000
vt 0.375000 0.875000
vt 0.750000 0.625000
vt 0.750000 0.750000
vt 0.625000 0.875000
s 0
f 19/1/1 16/2/1 3/3/1 5/4/1
f 23/5/2 15/6/2 1/7/2 8/8/2
f 21/9/3 7/10/3 3/3/3 16/2/3
f 10/11/4 2/12/4 4/12/4 11/11/4
f 15/6/5 19/1/5 5/4/5 1/7/5
f 17/13/6 2/12/6 6/14/6 20/15/6
f 20/15/7 6/14/7 7/10/7 21/9/7
f 6/14/8 13/16/8 14/17/8 7/10/8
f 2/12/9 10/11/9 13/16/9 6/14/9
f 1/7/10 5/4/10 12/18/10 8/19/10
f 18/13/11 22/20/11 11/11/11 4/12/11
f 7/10/12 14/17/12 9/21/12 3/3/12
f 5/4/13 3/3/13 9/22/13 12/18/13
f 2/12/14 17/13/14 18/13/14 4/12/14
f 35/1/15 28/4/15 26/3/15 32/2/15
f 23/5/2 8/8/2 24/7/2 31/6/2
f 37/9/16 32/2/16 26/3/16 30/10/16
f 10/11/4 11/11/4 27/12/4 25/12/4
f 31/6/17 24/7/17 28/4/17 35/1/17
f 33/13/18 36/15/18 29/14/18 25/12/18
f 36/15/19 37/9/19 30/10/19 29/14/19
f 29/14/8 30/10/8 14/17/8 13/16/8
f 25/12/9 29/14/9 13/16/9 10/11/9
f 24/7/10 8/19/10 12/18/10 28/4/10
f 34/13/11 27/12/11 11/11/11 22/20/11
f 30/10/12 26/3/12 9/21/12 14/17/12
f 28/4/13 12/18/13 9/22/13 26/3/13
f 25/12/20 27/12/20 34/13/20 33/13/20
f 19/1/1 42/4/1 40/3/1 16/2/1
f 23/5/2 45/8/2 38/7/2 15/6/2
f 21/9/3 16/2/3 40/3/3 44/10/3
f 47/11/21 48/11/21 41/12/21 39/12/21
f 15/6/5 38/7/5 42/4/5 19/1/5
f 17/13/6 20/15/6 43/14/6 39/12/6
f 20/15/7 21/9/7 44/10/7 43/14/7
f 43/14/22 44/10/22 51/17/22 50/16/22
f 39/12/23 43/14/23 50/16/23 47/11/23
f 38/7/24 45/19/24 49/18/24 42/4/24
f 18/13/11 41/12/11 48/11/11 22/20/11
f 44/10/25 40/3/25 46/21/25 51/17/25
f 42/4/26 49/18/26 46/22/26 40/3/26
f 39/12/14 41/12/14 18/13/14 17/13/14
f 35/1/15 32/2/15 54/3/15 56/4/15
f 23/5/2 31/6/2 52/7/2 45/8/2
f 37/9/16 58/10/16 54/3/16 32/2/16
f 47/11/21 53/12/21 55/12/21 48/11/21
f 31/6/17 35/1/17 56/4/17 52/7/17
f 33/13/18 53/12/18 57/14/18 36/15/18
f 36/15/19 57/14/19 58/10/19 37/9/19
f 57/14/22 50/16/22 51/17/22 58/10/22
f 53/12/23 47/11/23 50/16/23 57/14/23
f 52/7/24 56/4/24 49/18/24 45/19/24
f 34/13/11 22/20/11 48/11/11 55/12/11
f 58/10/25 51/17/25 46/21/25 54/3/25
f 56/4/26 54/3/26 46/22/26 49/18/26
f 53/12/20 33/13/20 34/13/20 55/12/20
